<?xml version="1.0" standalone="no"?>
<!DOCTYPE svg PUBLIC "-//W3C//DTD SVG 20010904//EN"
 "http://www.w3.org/TR/2001/REC-SVG-20010904/DTD/svg10.dtd">
<svg version="1.0" xmlns="http://www.w3.org/2000/svg"
 width="1018.000000pt" height="176.000000pt" viewBox="0 0 1018.000000 176.000000"
 preserveAspectRatio="xMidYMid meet">

<g transform="translate(0.000000,176.000000) scale(0.100000,-0.100000)"
fill="#000000" stroke="none">
<path d="M1319 1708 c-87 -61 -170 -141 -193 -186 -9 -18 -28 -76 -41 -129
-13 -53 -32 -108 -43 -122 -13 -18 -56 -40 -138 -71 -174 -67 -222 -91 -294
-150 -82 -66 -113 -82 -153 -78 -54 5 -86 69 -108 213 -18 118 -40 184 -73
220 -56 59 -145 65 -210 14 -47 -37 -86 -139 -53 -139 6 0 32 16 56 35 50 40
54 41 75 19 25 -24 45 -107 60 -250 31 -275 105 -474 216 -578 60 -56 103 -76
163 -76 63 0 73 -15 57 -89 -15 -70 -7 -91 47 -117 32 -15 61 -18 173 -17 249
2 372 29 378 85 5 42 -33 61 -118 60 -39 -1 -70 3 -70 7 0 4 14 20 31 37 17
16 39 44 51 62 11 17 23 32 26 32 4 0 31 -47 60 -104 34 -67 67 -117 92 -140
38 -34 43 -36 113 -36 87 0 113 14 103 54 -5 19 -19 32 -49 46 -83 36 -120
127 -121 295 -1 103 3 128 23 179 34 85 100 150 176 172 153 44 239 102 423
282 145 143 162 164 162 206 0 50 -25 39 -196 -91 -80 -60 -286 -169 -302
-159 -8 4 -6 20 5 50 16 41 16 47 0 83 -10 21 -22 64 -27 95 -10 66 -17 80
-65 137 -39 48 -42 59 -19 103 25 48 4 56 -49 19 -25 -17 -48 -31 -51 -31 -3
0 -6 18 -6 39 0 48 -8 71 -25 71 -6 0 -45 -23 -86 -52z m264 -295 c9 -9 -13
-34 -24 -27 -14 8 -11 34 4 34 8 0 17 -3 20 -7z"/>
<path d="M6570 846 l0 -536 55 0 55 0 0 153 c0 138 2 156 19 171 18 16 26 9
194 -154 l176 -171 91 3 91 3 -215 205 c-118 113 -215 208 -215 212 -1 4 84
81 189 170 211 181 208 174 79 177 l-55 1 -175 -151 -174 -150 -3 295 -2 296
-39 0 c-22 0 -46 3 -55 6 -14 6 -16 -45 -16 -530z"/>
<path d="M2200 1225 l0 -145 -60 0 -60 0 0 -50 0 -50 59 0 59 0 4 -247 3 -248
30 -54 c16 -29 45 -66 64 -82 124 -102 329 -62 409 80 l23 41 -43 20 c-56 26
-61 25 -81 -9 -26 -44 -80 -73 -136 -74 -61 -1 -108 26 -135 78 -20 37 -21 56
-21 265 l0 225 163 3 162 2 0 50 0 50 -162 2 -163 3 -3 143 -3 142 -54 0 -55
0 0 -145z"/>
<path d="M3850 840 l0 -530 70 0 c67 0 70 1 60 19 -16 31 -12 34 18 13 52 -36
96 -47 182 -47 77 0 92 3 153 33 79 39 132 99 169 189 20 51 23 75 23 198 0
130 -2 144 -26 195 -36 77 -80 124 -147 157 -50 25 -68 28 -152 28 -107 0
-138 -11 -202 -73 l-38 -36 0 186 c0 207 3 198 -71 198 l-39 0 0 -530z m404
149 c52 -14 121 -80 143 -137 25 -65 25 -208 -1 -281 -25 -72 -96 -145 -157
-161 -96 -26 -218 8 -258 73 -19 31 -21 49 -21 196 0 174 3 185 54 239 65 70
151 96 240 71z"/>
<path d="M4740 840 l0 -530 70 0 c67 0 70 1 60 19 -16 31 -12 34 18 13 52 -36
96 -47 182 -47 77 0 92 3 153 33 79 39 132 99 169 189 20 51 23 75 23 198 0
130 -2 144 -26 195 -36 77 -80 124 -147 157 -50 25 -68 28 -152 28 -107 0
-138 -11 -202 -73 l-38 -36 0 186 c0 207 3 198 -71 198 l-39 0 0 -530z m404
149 c52 -14 121 -80 143 -137 25 -65 25 -208 -1 -281 -25 -72 -96 -145 -157
-161 -96 -26 -218 8 -258 73 -19 31 -21 49 -21 196 0 174 3 185 54 239 65 70
151 96 240 71z"/>
<path d="M8460 1225 l0 -145 -60 0 -60 0 0 -50 0 -50 59 0 59 0 4 -247 3 -248
30 -54 c16 -29 45 -66 64 -82 124 -102 329 -62 409 80 l23 41 -43 20 c-56 26
-61 25 -81 -9 -26 -44 -80 -73 -136 -74 -61 -1 -108 26 -135 78 -20 37 -21 56
-21 265 l0 225 163 3 162 2 0 50 0 50 -162 2 -163 3 -3 143 -3 142 -54 0 -55
0 0 -145z"/>
<path d="M3124 1079 c-59 -20 -154 -82 -161 -106 -2 -6 10 -27 28 -47 l31 -36
48 35 c67 49 113 66 179 66 126 1 214 -74 230 -196 l8 -55 -106 0 c-228 -1
-375 -54 -427 -152 -22 -42 -18 -126 9 -173 47 -83 170 -132 302 -122 83 7
138 27 184 70 33 32 34 32 29 7 -3 -14 -9 -33 -13 -42 -6 -16 0 -18 65 -18
l71 0 -3 268 c-3 264 -3 268 -29 322 -37 79 -81 125 -154 161 -87 42 -201 50
-291 18z m364 -503 c3 -56 2 -59 -36 -96 -54 -50 -120 -81 -191 -87 -81 -8
-125 3 -166 39 -29 25 -35 37 -35 70 0 53 13 74 60 98 55 28 127 38 255 36
l110 -1 3 -59z"/>
<path d="M7604 1079 c-59 -20 -154 -82 -161 -106 -2 -6 10 -27 28 -47 l31 -36
48 35 c67 49 113 66 179 66 126 1 214 -74 230 -196 l8 -55 -106 0 c-228 -1
-375 -54 -427 -152 -22 -42 -18 -126 9 -173 47 -83 170 -132 302 -122 83 7
138 27 184 70 33 32 34 32 29 7 -3 -14 -9 -33 -13 -42 -6 -16 0 -18 65 -18
l71 0 -3 268 c-3 264 -3 268 -29 322 -37 79 -81 125 -154 161 -87 42 -201 50
-291 18z m364 -503 c3 -56 2 -59 -36 -96 -54 -50 -120 -81 -191 -87 -81 -8
-125 3 -166 39 -29 25 -35 37 -35 70 0 53 13 74 60 98 55 28 127 38 255 36
l110 -1 3 -59z"/>
<path d="M5640 1061 c0 -37 59 -199 164 -447 58 -138 106 -258 106 -266 0 -20
-47 -135 -72 -176 -23 -38 -65 -62 -107 -62 -25 0 -32 -5 -37 -27 -3 -16 -8
-36 -11 -45 -4 -16 3 -18 52 -18 100 0 165 42 215 140 67 133 311 779 335 888
l7 32 -65 0 -65 0 -7 -37 c-8 -47 -103 -338 -149 -458 l-34 -90 -27 60 c-70
156 -146 349 -172 433 l-28 92 -52 0 c-46 0 -53 -3 -53 -19z"/>
<path d="M9270 1035 l0 -45 215 0 c118 0 215 -3 215 -8 0 -4 -101 -136 -225
-294 -219 -279 -225 -288 -225 -332 l0 -46 295 0 c321 0 301 -4 289 59 l-6 31
-224 0 c-123 0 -224 3 -224 8 1 4 102 135 225 292 221 280 225 286 225 333 l0
47 -280 0 -280 0 0 -45z"/>
</g>
</svg>
